<svg xmlns="http://www.w3.org/2000/svg" width="512" height="512" viewBox="0 0 512 512">
  <defs>
    <linearGradient id="bg" x1="0" y1="0" x2="1" y2="1">
      <stop offset="0" stop-color="#1a1a1a"/>
      <stop offset="1" stop-color="#ff4fd8"/>
    </linearGradient>
  </defs>

  <rect x="0" y="0" width="512" height="512" rx="128" fill="url(#bg)"/>

  <!-- Signature mark -->
  <path d="M256 140 L236 180 L260 180 L245 216 L286 158 L260 158 Z" fill="#00d4ff"/>

  <!-- Ears -->
  <path d="M192 240 L240 140 L288 196 Z" fill="#5a6b5a" stroke="#00d4ff" stroke-width="18" stroke-linejoin="round"/>
  <path d="M320 240 L272 140 L224 196 Z" fill="#5a6b5a" stroke="#00d4ff" stroke-width="18" stroke-linejoin="round"/>

  <!-- Head -->
  <path d="M206 246 Q256 128 306 246 Q350 340 280 420 Q256 442 232 420 Q162 340 206 246 Z"
        fill="#5a6b5a" stroke="#00d4ff" stroke-width="18" stroke-linejoin="round"/>

  <!-- Eyes -->
  <circle cx="224" cy="318" r="30" fill="#eaffff"/>
  <circle cx="224" cy="318" r="12" fill="#1a1a1a"/>
  <circle cx="288" cy="318" r="30" fill="#eaffff"/>
  <circle cx="288" cy="318" r="12" fill="#1a1a1a"/>

  <!-- Nose / mouth -->
  <path d="M256 336 Q238 360 256 380 Q274 360 256 336 Z" fill="#00d4ff"/>
  <path d="M238 392 Q256 406 274 392" fill="none" stroke="#eaffff" stroke-width="12" stroke-linecap="round"/>

  <!-- Whiskers -->
  <path d="M206 404 L140 382" fill="none" stroke="#00d4ff" stroke-width="18" stroke-linecap="round"/>
  <path d="M220 436 L156 436" fill="none" stroke="#00d4ff" stroke-width="18" stroke-linecap="round"/>
  <path d="M220 468 L165 492" fill="none" stroke="#00d4ff" stroke-width="18" stroke-linecap="round"/>

  <path d="M306 404 L372 382" fill="none" stroke="#00d4ff" stroke-width="18" stroke-linecap="round"/>
  <path d="M292 436 L356 436" fill="none" stroke="#00d4ff" stroke-width="18" stroke-linecap="round"/>
  <path d="M292 468 L347 492" fill="none" stroke="#00d4ff" stroke-width="18" stroke-linecap="round"/>
</svg>

